<svg width="32" height="32" viewBox="0 0 32 32" fill="none" xmlns="http://www.w3.org/2000/svg">
<path fill-rule="evenodd" clip-rule="evenodd" d="M3.55855 3.00903C3.0112 2.51643 2.16815 2.56079 1.67553 3.10814C1.18293 3.65548 1.2273 4.49854 1.77464 4.99115L27.3333 27.9939V28.0001H27.3401L28.4413 28.9911C28.9887 29.4838 29.8317 29.4394 30.3243 28.8921C30.817 28.3447 30.7726 27.5017 30.2253 27.009L29.9363 26.749C30.3933 26.1785 30.6666 25.4546 30.6666 24.6667V8.00008C30.6666 5.79095 28.8758 4.00008 26.6666 4.00008H4.66659V4.00627L3.55855 3.00903ZM7.62268 6.66675L9.80436 8.63027C9.99136 8.56738 10.1916 8.53328 10.3998 8.53328C11.4307 8.53328 12.2665 9.36902 12.2665 10.3999C12.2665 10.5395 12.2511 10.6754 12.2221 10.8062L15.6073 13.8529L17.217 11.2772C17.5749 10.7046 18.2141 10.3699 18.8885 10.4019C19.563 10.434 20.1675 10.8278 20.4695 11.4317L25.1362 20.765C25.3997 21.292 25.3975 21.909 25.1382 22.4307L27.9371 24.9497C27.9774 24.8638 27.9999 24.7679 27.9999 24.6667V8.00008C27.9999 7.26371 27.403 6.66675 26.6666 6.66675H7.62268ZM9.18559 16.1212L6.86365 20.765C6.57433 21.3437 6.60525 22.0309 6.94537 22.5812C7.28549 23.1315 7.88631 23.4665 8.53325 23.4665H17.3471L9.18559 16.1212ZM3.99992 10.0001C3.99992 9.26371 3.40296 8.66675 2.66659 8.66675C1.93021 8.66675 1.33325 9.26371 1.33325 10.0001V24.0001C1.33325 26.2093 3.12412 28.0001 5.33325 28.0001H20.8849C21.6213 28.0001 22.2182 27.4031 22.2182 26.6667C22.2182 25.9303 21.6213 25.3334 20.8849 25.3334H5.33325C4.59688 25.3334 3.99992 24.7365 3.99992 24.0001V10.0001Z" fill="#999999"/>
</svg>
