<svg width="30" height="27" viewBox="0 0 30 27" fill="none" xmlns="http://www.w3.org/2000/svg">
<path fill-rule="evenodd" clip-rule="evenodd" d="M2.2253 0.342281C1.67795 -0.150319 0.834895 -0.105959 0.342282 0.441387C-0.150325 0.988734 -0.105953 1.83179 0.441388 2.3244L26 25.3272V25.3333H26.0068L27.108 26.3244C27.6555 26.8171 28.4984 26.7727 28.9911 26.2253C29.4837 25.678 29.4393 24.8349 28.892 24.3423L28.6031 24.0823C29.06 23.5117 29.3333 22.7879 29.3333 22V5.33333C29.3333 3.1242 27.5425 1.33333 25.3333 1.33333H3.33333V1.33952L2.2253 0.342281ZM6.28943 4L8.47111 5.96352C8.65811 5.90063 8.85835 5.86653 9.06653 5.86653C10.0975 5.86653 10.9332 6.70227 10.9332 7.7332C10.9332 7.87273 10.9179 8.00869 10.8889 8.13949L14.274 11.1861L15.8837 8.61041C16.2416 8.03783 16.8808 7.70313 17.5552 7.73519C18.2297 7.76723 18.8343 8.16101 19.1363 8.76495L23.8029 18.0983C24.0664 18.6252 24.0643 19.2423 23.8049 19.764L26.6039 22.2829C26.6441 22.1971 26.6667 22.1012 26.6667 22V5.33333C26.6667 4.59696 26.0697 4 25.3333 4H6.28943ZM7.85233 13.4544L5.5304 18.0983C5.24108 18.6769 5.272 19.3641 5.61212 19.9144C5.95224 20.4648 6.55305 20.7997 7.2 20.7997H16.0139L7.85233 13.4544ZM2.66667 7.33333C2.66667 6.59696 2.06971 6 1.33333 6C0.596962 6 1.54333e-06 6.59696 1.54333e-06 7.33333V21.3333C1.54333e-06 23.5425 1.79087 25.3333 4 25.3333H19.5516C20.288 25.3333 20.8849 24.7364 20.8849 24C20.8849 23.2636 20.288 22.6667 19.5516 22.6667H4C3.26363 22.6667 2.66667 22.0697 2.66667 21.3333V7.33333Z" fill="#98A2B3"/>
</svg>
